<?xml version="1.0" encoding="utf-8"?>
<svg width="1196px" height="276.00073px" viewBox="0 0 1196 276.00073" version="1.1" xmlns:xlink="http://www.w3.org/1999/xlink" xmlns="http://www.w3.org/2000/svg">
  <g id="Group">
    <path d="M157.972 4.13807L207.246 52.6016Q207.352 52.706 207.453 52.8155Q207.554 52.925 207.649 53.0393Q207.744 53.1537 207.834 53.2727Q207.923 53.3916 208.007 53.5149Q208.09 53.6381 208.167 53.7654Q208.245 53.8926 208.316 54.0235Q208.386 54.1544 208.451 54.2887Q208.515 54.4229 208.572 54.5602Q208.63 54.6975 208.681 54.8374Q208.731 54.9774 208.775 55.1197Q208.819 55.262 208.855 55.4063Q208.892 55.5506 208.921 55.6965Q208.95 55.8424 208.972 55.9897Q208.994 56.1369 209.009 56.285Q209.024 56.4331 209.031 56.5818Q209.039 56.7304 209.039 56.8793Q209.039 57.0281 209.031 57.1768Q209.024 57.3254 209.009 57.4736Q208.994 57.6217 208.972 57.7689Q208.95 57.9161 208.921 58.062Q208.892 58.2079 208.855 58.3522Q208.819 58.4965 208.775 58.6388Q208.731 58.7811 208.681 58.9211Q208.63 59.0611 208.572 59.1983Q208.515 59.3356 208.451 59.4699Q208.386 59.6041 208.316 59.735Q208.245 59.8659 208.167 59.9932Q208.09 60.1204 208.007 60.2437Q207.923 60.3669 207.834 60.4859Q207.744 60.6048 207.649 60.7192Q207.554 60.8336 207.453 60.9431Q207.352 61.0526 207.246 61.157L157.972 109.62Q157.868 109.723 157.759 109.82Q157.65 109.917 157.537 110.008Q157.424 110.1 157.306 110.186Q157.188 110.272 157.067 110.352Q156.945 110.432 156.82 110.507Q156.694 110.581 156.565 110.649Q156.436 110.717 156.304 110.779Q156.172 110.84 156.038 110.896Q155.903 110.951 155.765 110.999Q155.628 111.048 155.488 111.09Q155.349 111.132 155.207 111.167Q155.066 111.202 154.923 111.23Q154.78 111.258 154.636 111.279Q154.491 111.3 154.346 111.315Q154.201 111.329 154.056 111.336Q153.91 111.343 153.764 111.343Q153.619 111.343 153.473 111.336Q153.328 111.329 153.183 111.315Q153.037 111.3 152.893 111.279Q152.749 111.258 152.606 111.23Q152.463 111.202 152.322 111.167Q152.18 111.132 152.041 111.09Q151.901 111.048 151.764 110.999Q151.626 110.951 151.491 110.896Q151.356 110.84 151.224 110.779Q151.092 110.717 150.964 110.649Q150.835 110.581 150.709 110.507Q150.584 110.432 150.462 110.352Q150.34 110.272 150.223 110.186Q150.105 110.1 149.992 110.008Q149.878 109.917 149.77 109.82Q149.661 109.723 149.557 109.62L100.283 61.157Q100.177 61.0526 100.076 60.9431Q99.975 60.8336 99.8797 60.7192Q99.7845 60.6048 99.695 60.4859Q99.6055 60.3669 99.5221 60.2437Q99.4386 60.1204 99.3614 59.9932Q99.2841 59.866 99.2132 59.7351Q99.1424 59.6042 99.0781 59.4699Q99.0139 59.3356 98.9563 59.1983Q98.8988 59.0611 98.8481 58.9211Q98.7975 58.7811 98.7538 58.6388Q98.7102 58.4965 98.6737 58.3522Q98.6371 58.208 98.6078 58.062Q98.5784 57.9161 98.5564 57.7689Q98.5343 57.6217 98.5195 57.4736Q98.5048 57.3255 98.4974 57.1768Q98.49 57.0281 98.49 56.8793Q98.49 56.7304 98.4974 56.5818Q98.5048 56.4331 98.5195 56.285Q98.5343 56.1369 98.5564 55.9897Q98.5784 55.8425 98.6078 55.6965Q98.6371 55.5506 98.6737 55.4063Q98.7102 55.262 98.7538 55.1197Q98.7975 54.9774 98.8481 54.8374Q98.8988 54.6975 98.9563 54.5602Q99.0139 54.4229 99.0781 54.2887Q99.1424 54.1544 99.2132 54.0235Q99.2841 53.8926 99.3613 53.7653Q99.4386 53.6381 99.5221 53.5149Q99.6055 53.3916 99.695 53.2727Q99.7845 53.1537 99.8797 53.0393Q99.975 52.925 100.076 52.8155Q100.177 52.706 100.283 52.6016L149.557 4.13806Q149.661 4.03587 149.77 3.93884Q149.878 3.84182 149.992 3.75018Q150.105 3.65855 150.223 3.57253Q150.34 3.4865 150.462 3.40629Q150.584 3.32608 150.709 3.25187Q150.835 3.17766 150.964 3.10963Q151.092 3.0416 151.224 2.97991Q151.356 2.91821 151.491 2.863Q151.626 2.80779 151.764 2.75919Q151.901 2.71059 152.041 2.66872Q152.18 2.62685 152.322 2.59181Q152.463 2.55676 152.606 2.52863Q152.749 2.50049 152.893 2.47933Q153.037 2.45817 153.183 2.44404Q153.328 2.42991 153.473 2.42283Q153.619 2.41576 153.764 2.41576Q153.91 2.41576 154.056 2.42283Q154.201 2.42991 154.346 2.44404Q154.491 2.45818 154.636 2.47934Q154.78 2.50049 154.923 2.52863Q155.066 2.55676 155.207 2.59181Q155.349 2.62685 155.488 2.66872Q155.628 2.71059 155.765 2.75919Q155.903 2.80779 156.038 2.863Q156.172 2.91822 156.304 2.97991Q156.436 3.0416 156.565 3.10964Q156.694 3.17767 156.82 3.25188Q156.945 3.32609 157.067 3.4063Q157.188 3.48651 157.306 3.57253Q157.424 3.65855 157.537 3.75019Q157.65 3.84182 157.759 3.93885Q157.868 4.03588 157.972 4.13807L157.972 4.13807Z" id="Rectangle" fill="#FFFFFF" fill-rule="evenodd" stroke="none" />
    <path d="M158.075 4.13806L207.35 52.6016Q207.456 52.706 207.557 52.8155Q207.657 52.925 207.753 53.0393Q207.848 53.1537 207.937 53.2727Q208.027 53.3916 208.11 53.5149Q208.194 53.6381 208.271 53.7654Q208.348 53.8926 208.419 54.0235Q208.49 54.1544 208.554 54.2887Q208.619 54.4229 208.676 54.5602Q208.734 54.6975 208.784 54.8374Q208.835 54.9774 208.879 55.1197Q208.922 55.262 208.959 55.4063Q208.995 55.5506 209.025 55.6965Q209.054 55.8424 209.076 55.9897Q209.098 56.1369 209.113 56.285Q209.128 56.4331 209.135 56.5818Q209.142 56.7304 209.142 56.8793Q209.142 57.0281 209.135 57.1768Q209.128 57.3255 209.113 57.4736Q209.098 57.6217 209.076 57.7689Q209.054 57.9161 209.025 58.062Q208.995 58.2079 208.959 58.3522Q208.922 58.4965 208.879 58.6388Q208.835 58.7811 208.784 58.9211Q208.734 59.0611 208.676 59.1983Q208.619 59.3356 208.554 59.4699Q208.49 59.6041 208.419 59.735Q208.348 59.8659 208.271 59.9932Q208.194 60.1204 208.11 60.2437Q208.027 60.3669 207.937 60.4859Q207.848 60.6048 207.753 60.7192Q207.657 60.8336 207.557 60.9431Q207.456 61.0526 207.35 61.157L158.075 109.62Q157.972 109.723 157.863 109.82Q157.754 109.917 157.641 110.008Q157.527 110.1 157.41 110.186Q157.292 110.272 157.17 110.352Q157.049 110.432 156.923 110.507Q156.798 110.581 156.669 110.649Q156.54 110.717 156.408 110.779Q156.276 110.84 156.141 110.896Q156.006 110.951 155.869 110.999Q155.732 111.048 155.592 111.09Q155.452 111.132 155.311 111.167Q155.169 111.202 155.026 111.23Q154.883 111.258 154.739 111.279Q154.595 111.3 154.45 111.315Q154.305 111.329 154.159 111.336Q154.014 111.343 153.868 111.343Q153.722 111.343 153.577 111.336Q153.431 111.329 153.286 111.315Q153.141 111.3 152.997 111.279Q152.853 111.258 152.71 111.23Q152.567 111.202 152.425 111.167Q152.284 111.132 152.144 111.09Q152.005 111.048 151.867 110.999Q151.73 110.951 151.595 110.896Q151.46 110.84 151.328 110.779Q151.196 110.717 151.067 110.649Q150.938 110.581 150.813 110.507Q150.687 110.432 150.566 110.352Q150.444 110.272 150.326 110.186Q150.209 110.1 150.096 110.008Q149.982 109.917 149.873 109.82Q149.765 109.723 149.661 109.62L100.386 61.157Q100.28 61.0526 100.179 60.9431Q100.079 60.8336 99.9834 60.7192Q99.8881 60.6048 99.7986 60.4859Q99.7092 60.3669 99.6257 60.2437Q99.5422 60.1204 99.465 59.9932Q99.3877 59.866 99.3169 59.7351Q99.246 59.6042 99.1818 59.4699Q99.1175 59.3356 99.06 59.1983Q99.0024 59.0611 98.9518 58.9211Q98.9011 58.7811 98.8575 58.6388Q98.8138 58.4965 98.7773 58.3522Q98.7408 58.208 98.7114 58.062Q98.6821 57.9161 98.66 57.7689Q98.6379 57.6217 98.6232 57.4736Q98.6085 57.3255 98.6011 57.1768Q98.5937 57.0281 98.5937 56.8793Q98.5937 56.7304 98.6011 56.5818Q98.6085 56.4331 98.6232 56.285Q98.6379 56.1369 98.66 55.9897Q98.6821 55.8425 98.7114 55.6965Q98.7408 55.5506 98.7773 55.4063Q98.8138 55.262 98.8575 55.1197Q98.9011 54.9774 98.9518 54.8374Q99.0024 54.6975 99.06 54.5602Q99.1175 54.4229 99.1818 54.2887Q99.246 54.1544 99.3169 54.0235Q99.3877 53.8926 99.465 53.7653Q99.5422 53.6381 99.6257 53.5149Q99.7092 53.3916 99.7986 53.2727Q99.8881 53.1537 99.9834 53.0393Q100.079 52.925 100.179 52.8155Q100.28 52.706 100.386 52.6016L149.661 4.13806Q149.765 4.03587 149.873 3.93884Q149.982 3.84181 150.096 3.75018Q150.209 3.65855 150.326 3.57252Q150.444 3.4865 150.566 3.40629Q150.687 3.32608 150.813 3.25187Q150.938 3.17766 151.067 3.10963Q151.196 3.0416 151.328 2.9799Q151.46 2.91821 151.595 2.863Q151.73 2.80779 151.867 2.75919Q152.005 2.71059 152.144 2.66872Q152.284 2.62685 152.425 2.59181Q152.567 2.55676 152.71 2.52863Q152.853 2.50049 152.997 2.47933Q153.141 2.45817 153.286 2.44404Q153.431 2.4299 153.577 2.42283Q153.722 2.41575 153.868 2.41575Q154.014 2.41575 154.159 2.42283Q154.305 2.4299 154.45 2.44404Q154.595 2.45817 154.739 2.47933Q154.883 2.50049 155.026 2.52863Q155.169 2.55676 155.311 2.59181Q155.452 2.62685 155.592 2.66872Q155.732 2.71059 155.869 2.75919Q156.006 2.80779 156.141 2.863Q156.276 2.91821 156.408 2.97991Q156.54 3.0416 156.669 3.10963Q156.798 3.17767 156.923 3.25187Q157.049 3.32608 157.17 3.40629Q157.292 3.4865 157.41 3.57253Q157.527 3.65855 157.641 3.75019Q157.754 3.84182 157.863 3.93885Q157.972 4.03587 158.075 4.13806L158.075 4.13806Z" id="Rectangle" fill="#FFFFFF" fill-rule="evenodd" stroke="none" />
    <path d="M88.3057 199.632L135.253 153.459Q135.412 153.303 135.558 153.136Q135.704 152.969 135.838 152.792Q135.971 152.615 136.092 152.428Q136.212 152.242 136.318 152.047Q136.424 151.852 136.515 151.649Q136.606 151.447 136.682 151.238Q136.759 151.03 136.819 150.816Q136.88 150.603 136.924 150.386Q136.969 150.168 136.997 149.948Q137.025 149.728 137.037 149.506Q137.049 149.285 137.045 149.063Q137.041 148.841 137.02 148.62Q136.999 148.399 136.962 148.18Q136.925 147.961 136.872 147.746Q136.819 147.53 136.75 147.319Q136.681 147.108 136.597 146.903Q136.513 146.698 136.414 146.499Q136.314 146.301 136.201 146.11Q136.087 145.919 135.96 145.737Q135.832 145.556 135.692 145.384Q135.552 145.212 135.399 145.051Q135.246 144.89 135.082 144.741Q134.918 144.591 134.743 144.455Q134.568 144.318 134.383 144.195Q134.199 144.071 134.006 143.962Q133.813 143.852 133.612 143.757Q133.412 143.662 133.205 143.583Q132.997 143.503 132.785 143.438Q132.573 143.374 132.356 143.326Q132.139 143.277 131.92 143.245Q131.7 143.213 131.479 143.197Q131.258 143.181 131.036 143.181L18.8676 143.38Q18.6307 143.38 18.3945 143.399Q18.1584 143.418 17.9245 143.456Q17.6906 143.494 17.4604 143.55Q17.2302 143.606 17.0051 143.68Q16.78 143.754 16.5615 143.845Q16.3429 143.937 16.1323 144.045Q15.9216 144.154 15.7202 144.278Q15.5187 144.403 15.3277 144.543Q15.1368 144.683 14.9574 144.838Q14.7781 144.993 14.6115 145.161Q14.4449 145.33 14.2922 145.511Q14.1394 145.692 14.0014 145.885Q13.8634 146.077 13.741 146.28Q13.6186 146.483 13.5126 146.695Q13.4065 146.907 13.3176 147.126Q13.2286 147.346 13.1572 147.572Q13.0858 147.798 13.0324 148.028Q12.979 148.259 12.944 148.494Q12.9091 148.728 12.8926 148.964Q12.8762 149.201 12.8785 149.438Q12.8808 149.674 12.9017 149.91Q12.9227 150.146 12.9622 150.38Q13.0017 150.614 13.0595 150.843Q13.1172 151.073 13.193 151.298Q13.2687 151.522 13.3619 151.74Q13.4551 151.958 13.5651 152.168Q13.6752 152.377 13.8015 152.578Q13.9278 152.778 14.0695 152.968Q14.2111 153.158 14.3674 153.336Q14.5236 153.514 14.6934 153.679Q14.8631 153.845 15.0454 153.996Q15.2277 154.147 15.4213 154.284L80.6416 200.258Q80.8549 200.408 81.0805 200.54Q81.3061 200.671 81.5422 200.782Q81.7783 200.893 82.0232 200.984Q82.2681 201.074 82.5199 201.143Q82.7717 201.211 83.0285 201.258Q83.2853 201.304 83.5452 201.328Q83.8051 201.353 84.0661 201.354Q84.327 201.355 84.5872 201.334Q84.8473 201.313 85.1046 201.269Q85.3619 201.225 85.6144 201.159Q85.867 201.093 86.1128 201.006Q86.3587 200.918 86.596 200.81Q86.8333 200.701 87.0603 200.572Q87.2872 200.443 87.5022 200.295Q87.7171 200.147 87.9184 199.981Q88.1196 199.815 88.3057 199.632L88.3057 199.632Z" id="Triangle" fill="#FFFFFF" fill-rule="evenodd" stroke="none" />
    <path d="M158.773 166.38L208.047 214.844Q208.153 214.948 208.254 215.058Q208.355 215.167 208.45 215.282Q208.545 215.396 208.635 215.515Q208.724 215.634 208.808 215.757Q208.891 215.88 208.968 216.008Q209.046 216.135 209.116 216.266Q209.187 216.397 209.252 216.531Q209.316 216.665 209.373 216.802Q209.431 216.94 209.482 217.08Q209.532 217.22 209.576 217.362Q209.62 217.504 209.656 217.648Q209.693 217.793 209.722 217.939Q209.751 218.085 209.773 218.232Q209.795 218.379 209.81 218.527Q209.825 218.675 209.832 218.824Q209.84 218.973 209.84 219.121Q209.84 219.27 209.832 219.419Q209.825 219.568 209.81 219.716Q209.795 219.864 209.773 220.011Q209.751 220.158 209.722 220.304Q209.693 220.45 209.656 220.594Q209.62 220.739 209.576 220.881Q209.532 221.023 209.482 221.163Q209.431 221.303 209.373 221.441Q209.316 221.578 209.252 221.712Q209.187 221.846 209.116 221.977Q209.046 222.108 208.968 222.235Q208.891 222.363 208.808 222.486Q208.724 222.609 208.635 222.728Q208.545 222.847 208.45 222.961Q208.355 223.076 208.254 223.185Q208.153 223.295 208.047 223.399L158.773 271.863Q158.669 271.965 158.56 272.062Q158.451 272.159 158.338 272.251Q158.225 272.342 158.107 272.428Q157.989 272.514 157.868 272.594Q157.746 272.675 157.621 272.749Q157.495 272.823 157.366 272.891Q157.237 272.959 157.105 273.021Q156.973 273.083 156.839 273.138Q156.704 273.193 156.566 273.242Q156.429 273.29 156.289 273.332Q156.15 273.374 156.008 273.409Q155.867 273.444 155.724 273.472Q155.581 273.5 155.437 273.521Q155.292 273.543 155.147 273.557Q155.002 273.571 154.857 273.578Q154.711 273.585 154.565 273.585Q154.42 273.585 154.274 273.578Q154.129 273.571 153.983 273.557Q153.838 273.543 153.694 273.521Q153.55 273.5 153.407 273.472Q153.264 273.444 153.123 273.409Q152.981 273.374 152.842 273.332Q152.702 273.29 152.565 273.242Q152.427 273.193 152.292 273.138Q152.157 273.083 152.025 273.021Q151.893 272.959 151.764 272.891Q151.636 272.823 151.51 272.749Q151.385 272.675 151.263 272.594Q151.141 272.514 151.024 272.428Q150.906 272.342 150.793 272.251Q150.679 272.159 150.571 272.062Q150.462 271.965 150.358 271.863L101.084 223.399Q100.978 223.295 100.877 223.185Q100.776 223.076 100.681 222.961Q100.585 222.847 100.496 222.728Q100.406 222.609 100.323 222.486Q100.24 222.363 100.162 222.235Q100.085 222.108 100.014 221.977Q99.9433 221.846 99.879 221.712Q99.8148 221.578 99.7572 221.441Q99.6997 221.303 99.649 221.163Q99.5984 221.023 99.5547 220.881Q99.5111 220.739 99.4745 220.594Q99.438 220.45 99.4087 220.304Q99.3793 220.158 99.3573 220.011Q99.3352 219.864 99.3204 219.716Q99.3057 219.568 99.2983 219.419Q99.2909 219.27 99.2909 219.121Q99.2909 218.973 99.2983 218.824Q99.3057 218.675 99.3204 218.527Q99.3352 218.379 99.3572 218.232Q99.3793 218.085 99.4087 217.939Q99.438 217.793 99.4745 217.648Q99.5111 217.504 99.5547 217.362Q99.5984 217.22 99.649 217.08Q99.6997 216.94 99.7572 216.802Q99.8148 216.665 99.879 216.531Q99.9433 216.397 100.014 216.266Q100.085 216.135 100.162 216.008Q100.24 215.88 100.323 215.757Q100.406 215.634 100.496 215.515Q100.585 215.396 100.681 215.282Q100.776 215.167 100.877 215.058Q100.978 214.948 101.084 214.844L150.358 166.38Q150.462 166.278 150.571 166.181Q150.679 166.084 150.793 165.992Q150.906 165.901 151.024 165.815Q151.141 165.729 151.263 165.648Q151.385 165.568 151.51 165.494Q151.636 165.42 151.764 165.352Q151.893 165.284 152.025 165.222Q152.157 165.16 152.292 165.105Q152.427 165.05 152.565 165.001Q152.702 164.953 152.842 164.911Q152.981 164.869 153.123 164.834Q153.264 164.799 153.407 164.771Q153.55 164.743 153.694 164.722Q153.838 164.7 153.983 164.686Q154.129 164.672 154.274 164.665Q154.42 164.658 154.565 164.658Q154.711 164.658 154.857 164.665Q155.002 164.672 155.147 164.686Q155.292 164.7 155.437 164.722Q155.581 164.743 155.724 164.771Q155.867 164.799 156.008 164.834Q156.15 164.869 156.289 164.911Q156.429 164.953 156.566 165.001Q156.704 165.05 156.839 165.105Q156.973 165.16 157.105 165.222Q157.237 165.284 157.366 165.352Q157.495 165.42 157.621 165.494Q157.746 165.568 157.868 165.648Q157.989 165.729 158.107 165.815Q158.225 165.901 158.338 165.992Q158.451 166.084 158.56 166.181Q158.669 166.278 158.773 166.38Z" id="Rectangle" fill="#FFFFFF" fill-rule="evenodd" stroke="none" />
    <path d="M82.1761 78.7685L43.7718 115.07Q43.6093 115.224 43.4587 115.389Q43.308 115.554 43.1701 115.73Q43.0322 115.906 42.9078 116.092Q42.7834 116.278 42.6731 116.473Q42.5629 116.667 42.4674 116.869Q42.372 117.072 42.2918 117.281Q42.2117 117.489 42.1473 117.703Q42.083 117.918 42.0347 118.136Q41.9865 118.354 41.9546 118.576Q41.9228 118.797 41.9075 119.02Q41.8922 119.243 41.8935 119.467Q41.8949 119.691 41.9129 119.913Q41.9309 120.136 41.9654 120.357Q42 120.578 42.0509 120.796Q42.1018 121.014 42.1688 121.227Q42.2357 121.441 42.3184 121.648Q42.4011 121.856 42.499 122.057Q42.5969 122.258 42.7095 122.452Q42.8221 122.645 42.9487 122.829Q43.0754 123.013 43.2155 123.188Q43.3555 123.362 43.5081 123.525Q43.6608 123.689 43.8251 123.841Q43.9895 123.992 44.1647 124.131Q44.3399 124.27 44.525 124.396Q44.7101 124.521 44.9039 124.633Q45.0979 124.744 45.2995 124.841Q45.5012 124.937 45.7095 125.019Q45.9177 125.1 46.1315 125.166Q46.3453 125.232 46.5634 125.281Q46.7814 125.331 47.0026 125.364Q47.2238 125.397 47.4468 125.414Q47.6698 125.43 47.8934 125.43L127.028 125.43Q127.254 125.43 127.48 125.413Q127.706 125.396 127.93 125.362Q128.154 125.328 128.374 125.277Q128.595 125.227 128.811 125.159Q129.027 125.092 129.238 125.009Q129.448 124.925 129.652 124.826Q129.855 124.727 130.051 124.613Q130.246 124.499 130.433 124.371Q130.619 124.242 130.795 124.1Q130.972 123.958 131.137 123.803Q131.302 123.648 131.454 123.481Q131.607 123.314 131.747 123.136Q131.887 122.958 132.013 122.77Q132.139 122.582 132.25 122.385Q132.362 122.188 132.458 121.983Q132.554 121.778 132.635 121.566Q132.716 121.355 132.78 121.138Q132.844 120.921 132.892 120.7Q132.94 120.478 132.971 120.254Q133.002 120.03 133.016 119.804Q133.031 119.578 133.028 119.352Q133.025 119.125 133.005 118.9Q132.985 118.674 132.948 118.451Q132.911 118.228 132.857 118.008Q132.803 117.788 132.733 117.572Q132.663 117.357 132.577 117.148Q132.491 116.938 132.389 116.736Q132.287 116.534 132.171 116.34Q132.054 116.146 131.923 115.961Q131.792 115.776 131.648 115.602Q131.504 115.428 131.346 115.265Q131.189 115.102 131.02 114.951L90.2898 78.6497Q90.1858 78.557 90.0776 78.4693Q89.9695 78.3816 89.8574 78.2989Q89.7453 78.2163 89.6295 78.139Q89.5136 78.0616 89.3944 77.9898Q89.2751 77.9179 89.1526 77.8516Q89.0301 77.7854 88.9047 77.7248Q88.7792 77.6643 88.6511 77.6097Q88.523 77.5551 88.3925 77.5065Q88.262 77.4578 88.1294 77.4153Q87.9968 77.3728 87.8624 77.3365Q87.7279 77.3002 87.5919 77.2701Q87.4559 77.2401 87.3187 77.2164Q87.1815 77.1927 87.0433 77.1754Q86.9051 77.1581 86.7663 77.1472Q86.6274 77.1363 86.4882 77.1319Q86.349 77.1275 86.2098 77.1295Q86.0705 77.1316 85.9315 77.1401Q85.7925 77.1485 85.6541 77.1635Q85.5156 77.1784 85.378 77.1998Q85.2404 77.2211 85.1039 77.2488Q84.9674 77.2765 84.8323 77.3105Q84.6973 77.3446 84.564 77.3848Q84.4306 77.425 84.2993 77.4714Q84.168 77.5178 84.039 77.5702Q83.91 77.6227 83.7835 77.681Q83.6571 77.7394 83.5335 77.8035Q83.4099 77.8677 83.2894 77.9375Q83.1689 78.0073 83.0517 78.0827Q82.9346 78.158 82.8211 78.2387Q82.7076 78.3194 82.598 78.4053Q82.4883 78.4911 82.3828 78.582Q82.2773 78.6729 82.1761 78.7685Z" id="Triangle" fill="#FFFFFF" fill-rule="evenodd" stroke="none" />
    <path d="M225.559 80.1317L263.965 116.433Q264.127 116.587 264.278 116.752Q264.428 116.917 264.566 117.094Q264.704 117.27 264.829 117.455Q264.953 117.641 265.063 117.836Q265.174 118.03 265.269 118.233Q265.365 118.435 265.445 118.644Q265.525 118.852 265.589 119.067Q265.653 119.281 265.702 119.499Q265.75 119.717 265.782 119.939Q265.814 120.16 265.829 120.383Q265.844 120.606 265.843 120.83Q265.842 121.054 265.824 121.277Q265.806 121.5 265.771 121.72Q265.736 121.941 265.686 122.159Q265.635 122.377 265.568 122.59Q265.501 122.804 265.418 123.011Q265.335 123.219 265.238 123.42Q265.14 123.621 265.027 123.815Q264.914 124.008 264.788 124.192Q264.661 124.376 264.521 124.551Q264.381 124.725 264.228 124.889Q264.076 125.052 263.911 125.204Q263.747 125.355 263.572 125.494Q263.397 125.633 263.211 125.759Q263.026 125.884 262.833 125.996Q262.639 126.107 262.437 126.204Q262.235 126.301 262.027 126.382Q261.819 126.463 261.605 126.529Q261.391 126.595 261.173 126.644Q260.955 126.694 260.734 126.727Q260.513 126.76 260.29 126.777Q260.067 126.794 259.843 126.794L180.706 126.794Q180.48 126.794 180.254 126.777Q180.028 126.76 179.805 126.726Q179.581 126.691 179.36 126.641Q179.14 126.59 178.923 126.523Q178.707 126.455 178.497 126.372Q178.286 126.289 178.083 126.19Q177.879 126.091 177.684 125.977Q177.488 125.863 177.302 125.734Q177.115 125.606 176.939 125.463Q176.763 125.321 176.598 125.166Q176.433 125.011 176.28 124.844Q176.127 124.677 175.987 124.499Q175.847 124.321 175.721 124.133Q175.595 123.945 175.484 123.748Q175.373 123.551 175.276 123.346Q175.18 123.141 175.099 122.93Q175.019 122.718 174.954 122.501Q174.89 122.284 174.842 122.063Q174.794 121.841 174.763 121.617Q174.732 121.393 174.718 121.167Q174.704 120.941 174.707 120.715Q174.71 120.488 174.73 120.263Q174.75 120.037 174.787 119.814Q174.824 119.591 174.877 119.371Q174.931 119.151 175.001 118.936Q175.071 118.72 175.157 118.511Q175.244 118.302 175.345 118.099Q175.447 117.897 175.564 117.703Q175.68 117.509 175.811 117.324Q175.942 117.14 176.086 116.965Q176.231 116.791 176.388 116.628Q176.545 116.465 176.714 116.314L217.446 80.0128Q217.55 79.9202 217.658 79.8324Q217.766 79.7447 217.878 79.6621Q217.99 79.5795 218.106 79.5021Q218.222 79.4248 218.341 79.3529Q218.46 79.281 218.583 79.2148Q218.705 79.1485 218.831 79.088Q218.956 79.0275 219.084 78.9729Q219.213 78.9182 219.343 78.8696Q219.474 78.821 219.606 78.7785Q219.739 78.736 219.873 78.6997Q220.008 78.6633 220.144 78.6333Q220.28 78.6033 220.417 78.5796Q220.554 78.5559 220.692 78.5386Q220.83 78.5212 220.969 78.5104Q221.108 78.4995 221.247 78.4951Q221.387 78.4906 221.526 78.4927Q221.665 78.4947 221.804 78.5032Q221.943 78.5117 222.081 78.5267Q222.22 78.5416 222.358 78.563Q222.495 78.5843 222.632 78.612Q222.768 78.6397 222.903 78.6737Q223.038 78.7077 223.172 78.748Q223.305 78.7882 223.436 78.8346Q223.567 78.881 223.696 78.9334Q223.826 78.9858 223.952 79.0442Q224.078 79.1025 224.202 79.1667Q224.326 79.2308 224.446 79.3007Q224.567 79.3705 224.684 79.4458Q224.801 79.5212 224.914 79.6019Q225.028 79.6825 225.138 79.7684Q225.247 79.8543 225.353 79.9452Q225.458 80.036 225.559 80.1317Z" id="Triangle" fill="#FFFFFF" fill-rule="evenodd" stroke="none" />
    <path d="M219.421 199.607L172.424 153.175Q172.266 153.019 172.12 152.852Q171.974 152.685 171.841 152.507Q171.708 152.33 171.589 152.143Q171.469 151.957 171.363 151.762Q171.258 151.567 171.167 151.364Q171.076 151.162 171.001 150.954Q170.925 150.745 170.865 150.532Q170.805 150.318 170.761 150.101Q170.717 149.884 170.689 149.664Q170.661 149.444 170.649 149.222Q170.637 149.001 170.642 148.779Q170.647 148.558 170.668 148.337Q170.689 148.116 170.726 147.898Q170.763 147.679 170.817 147.464Q170.87 147.249 170.939 147.038Q171.008 146.827 171.092 146.622Q171.177 146.417 171.276 146.219Q171.375 146.021 171.489 145.83Q171.603 145.64 171.73 145.458Q171.858 145.277 171.998 145.105Q172.139 144.934 172.291 144.773Q172.444 144.612 172.608 144.463Q172.772 144.314 172.947 144.178Q173.122 144.041 173.306 143.918Q173.491 143.795 173.684 143.686Q173.876 143.576 174.077 143.482Q174.277 143.387 174.484 143.307Q174.691 143.228 174.903 143.163Q175.116 143.099 175.332 143.051Q175.548 143.003 175.768 142.97Q175.987 142.938 176.208 142.922Q176.43 142.906 176.651 142.906L288.937 143.107Q289.174 143.107 289.41 143.126Q289.646 143.145 289.879 143.183Q290.113 143.22 290.343 143.276Q290.573 143.332 290.798 143.406Q291.023 143.48 291.241 143.571Q291.46 143.662 291.67 143.771Q291.881 143.879 292.082 144.003Q292.283 144.128 292.474 144.268Q292.665 144.408 292.844 144.562Q293.024 144.717 293.19 144.885Q293.357 145.053 293.509 145.234Q293.662 145.415 293.8 145.607Q293.938 145.8 294.061 146.002Q294.183 146.205 294.289 146.416Q294.396 146.628 294.485 146.847Q294.574 147.067 294.645 147.292Q294.717 147.518 294.771 147.748Q294.824 147.979 294.859 148.213Q294.895 148.447 294.911 148.683Q294.928 148.919 294.926 149.156Q294.924 149.393 294.904 149.629Q294.883 149.864 294.844 150.098Q294.805 150.331 294.747 150.561Q294.69 150.791 294.615 151.015Q294.539 151.24 294.447 151.457Q294.354 151.675 294.244 151.885Q294.135 152.095 294.009 152.295Q293.883 152.496 293.742 152.686Q293.601 152.876 293.445 153.054Q293.289 153.232 293.12 153.398Q292.951 153.563 292.769 153.715Q292.587 153.866 292.394 154.003L227.105 200.236Q226.891 200.387 226.665 200.519Q226.439 200.651 226.202 200.763Q225.966 200.875 225.72 200.966Q225.475 201.057 225.222 201.126Q224.97 201.195 224.712 201.242Q224.454 201.289 224.194 201.313Q223.933 201.338 223.671 201.339Q223.409 201.341 223.148 201.319Q222.887 201.298 222.629 201.254Q222.371 201.21 222.118 201.144Q221.865 201.077 221.618 200.989Q221.372 200.901 221.134 200.792Q220.896 200.683 220.668 200.553Q220.441 200.424 220.225 200.275Q220.01 200.126 219.808 199.959Q219.607 199.792 219.421 199.607Z" id="Triangle" fill="#FFFFFF" fill-rule="evenodd" stroke="none" />
    <path d="M451.324 226.26C434.363 226.26 419.379 222.26 406.371 214.26C393.363 206.261 383.216 195.127 375.929 180.86C368.643 166.592 365 150.057 365 131.254C365 111.956 368.725 95.1727 376.176 80.9053C383.627 66.6379 393.836 55.5868 406.803 47.7521C419.77 39.9174 434.487 36 450.953 36C464.702 36 477.258 38.7009 488.619 44.1027C499.981 49.5046 509.346 57.0094 516.715 66.6172C524.083 76.2251 528.673 87.3792 530.485 100.08L497.264 100.08C494.959 89.6884 489.751 81.297 481.642 74.9055C473.532 68.5141 463.591 65.3183 451.818 65.3183C440.785 65.3183 431.235 68.0399 423.167 73.4829C415.098 78.926 408.862 86.5751 404.457 96.4304C400.052 106.286 397.85 117.893 397.85 131.254C397.85 144.531 400.073 156.098 404.519 165.953C408.965 175.808 415.242 183.437 423.352 188.839C431.461 194.241 441.032 196.942 452.065 196.942C461.121 196.942 469.21 195.107 476.332 191.437C483.453 187.767 489.072 182.633 493.189 176.035C497.305 169.438 499.405 161.809 499.487 153.15L456.757 153.15L456.757 127.295L531.719 127.295L531.719 149.562C531.719 164.489 528.241 177.726 521.284 189.272C514.327 200.818 504.797 209.869 492.695 216.425C480.592 222.982 466.802 226.26 451.324 226.26L451.324 226.26ZM580.352 38.9689L580.352 223.291L549.231 223.291L549.231 38.9689L580.352 38.9689ZM605.768 275L605.768 249.64L621.204 249.64C625.403 249.64 628.676 248.506 631.022 246.238C633.369 243.97 635.448 240.28 637.259 235.167L642.075 222.549L591.813 92.6573L624.786 92.6573L648.744 160.696C650.391 165.561 651.996 170.407 653.56 175.231C655.125 180.056 656.648 184.86 658.13 189.643C661.094 180.076 664.222 170.427 667.515 160.696L691.35 92.6573L723.953 92.6573L665.663 244.816C657.924 264.939 644.751 275 626.145 275L605.768 275ZM733.685 275L733.685 92.6573L764.312 92.6573L764.312 110.842L764.682 110.842C768.799 103.915 774.315 98.719 781.231 95.2552C788.146 91.7914 795.803 90.0595 804.201 90.0595C815.398 90.0595 825.215 92.9254 833.655 98.6571C842.093 104.389 848.68 112.347 853.414 122.532C858.148 132.717 860.515 144.49 860.515 157.85C860.515 171.458 858.189 183.354 853.537 193.54C848.886 203.725 842.32 211.663 833.84 217.353C825.36 223.043 815.439 225.889 804.077 225.889C795.515 225.889 787.92 224.033 781.292 220.322C774.665 216.611 769.293 211.044 765.176 203.622L764.806 203.622L764.806 275L733.685 275ZM796.791 199.787C806.424 199.787 814.204 196.179 820.132 188.962C826.06 181.746 829.023 171.376 829.023 157.85C829.023 144.408 826.06 134.058 820.132 126.8C814.204 119.543 806.424 115.914 796.791 115.914C786.582 115.914 778.411 119.728 772.277 127.357C766.143 134.985 763.077 145.15 763.077 157.85C763.077 170.551 766.143 180.715 772.277 188.344C778.411 195.972 786.582 199.787 796.791 199.787L796.791 199.787ZM906.925 149.438L906.925 223.291L875.804 223.291L875.804 38.9689L906.925 38.9689L906.925 111.832C915.981 97.317 929.154 90.0595 946.443 90.0595C960.11 90.0595 971.286 94.4717 979.972 103.296C988.658 112.12 993.001 124.903 993.001 141.645L993.001 223.291L961.757 223.291L961.757 146.593C961.757 137.027 959.452 129.769 954.841 124.821C950.23 119.873 943.768 117.399 935.452 117.399C927.301 117.399 920.509 119.955 915.075 125.068C909.641 130.182 906.925 138.305 906.925 149.438L906.925 149.438ZM1014.34 223.291L1014.34 92.6573L1045.46 92.6573L1045.46 223.291L1014.34 223.291ZM1029.9 73.2355C1024.55 73.2355 1020.1 71.5242 1016.56 68.1017C1013.02 64.6792 1011.25 60.4526 1011.25 55.4218C1011.25 50.3911 1013.02 46.1851 1016.56 42.8038C1020.1 39.4225 1024.55 37.7319 1029.9 37.7319C1035.17 37.7319 1039.58 39.4225 1043.12 42.8038C1046.66 46.1851 1048.43 50.3911 1048.43 55.4218C1048.43 60.4526 1046.66 64.6792 1043.12 68.1017C1039.58 71.5243 1035.17 73.2355 1029.9 73.2355L1029.9 73.2355ZM1097.92 149.438L1097.92 223.291L1066.8 223.291L1066.8 92.6573L1097.43 92.6573L1097.43 112.698C1106.49 97.6056 1119.82 90.0595 1137.44 90.0595C1151.11 90.0595 1162.29 94.4717 1170.97 103.296C1179.66 112.12 1184 124.903 1184 141.645L1184 223.291L1152.76 223.291L1152.76 146.593C1152.76 137.027 1150.45 129.769 1145.84 124.821C1141.23 119.873 1134.77 117.399 1126.45 117.399C1118.3 117.399 1111.51 119.955 1106.07 125.068C1100.64 130.182 1097.92 138.305 1097.92 149.438L1097.92 149.438Z" id="Path" fill="#FFFFFF" stroke="none" />
    <path d="M1184 0L1196 0L1196 276L1184 276L1184 0Z" id="Rectangle" fill="#FFFFFF" fill-opacity="0" fill-rule="evenodd" stroke="none" />
  </g>
</svg>